<?xml version="1.0" encoding="utf-8"?>
<!-- Generator: Adobe Illustrator 16.0.0, SVG Export Plug-In . SVG Version: 6.00 Build 0)  -->
<!DOCTYPE svg PUBLIC "-//W3C//DTD SVG 1.1//EN" "http://www.w3.org/Graphics/SVG/1.1/DTD/svg11.dtd">
<svg version="1.1" id="Layer_1" xmlns="http://www.w3.org/2000/svg" xmlns:xlink="http://www.w3.org/1999/xlink" x="0px" y="0px"
	 width="524.987px" height="118.667px" viewBox="0 0 524.987 118.667" enable-background="new 0 0 524.987 118.667"
	 xml:space="preserve">
<g>
	<path fill="#0D3B66" d="M115.591,92.765v-69.8h43.6v10h-32.3v19.399h28.7v10h-28.7v30.4H115.591z"/>
	<path fill="#0D3B66" d="M177.29,31.465c-2.267,0-3.917-0.533-4.95-1.601c-1.035-1.065-1.55-2.433-1.55-4.1v-1.7
		c0-1.665,0.516-3.032,1.55-4.1c1.033-1.065,2.683-1.601,4.95-1.601c2.266,0,3.9,0.535,4.9,1.601c1,1.067,1.5,2.435,1.5,4.1v1.7
		c0,1.667-0.5,3.034-1.5,4.1C181.19,30.932,179.555,31.465,177.29,31.465z M171.79,40.765h10.9v52h-10.9V40.765z"/>
	<path fill="#0D3B66" d="M198.29,92.765v-52h10.9v8.6h0.5c1.133-2.8,2.85-5.133,5.15-7c2.3-1.865,5.45-2.8,9.45-2.8
		c5.333,0,9.483,1.75,12.45,5.25c2.966,3.5,4.45,8.484,4.45,14.95v33h-10.9v-31.6c0-8.133-3.267-12.2-9.8-12.2
		c-1.4,0-2.784,0.185-4.15,0.55c-1.367,0.367-2.584,0.917-3.65,1.65c-1.067,0.734-1.917,1.667-2.55,2.8
		c-0.634,1.134-0.95,2.467-0.95,4v34.8H198.29z"/>
	<path fill="#0D3B66" d="M256.289,18.765h10.9v30.6h0.5c1.133-2.8,2.85-5.133,5.149-7c2.301-1.865,5.45-2.8,9.45-2.8
		c5.333,0,9.483,1.75,12.45,5.25c2.966,3.5,4.45,8.484,4.45,14.95v33h-10.9v-31.7c0-8.065-3.267-12.1-9.8-12.1
		c-1.4,0-2.784,0.185-4.15,0.55c-1.367,0.367-2.584,0.917-3.649,1.65c-1.067,0.734-1.917,1.667-2.55,2.8
		c-0.635,1.134-0.95,2.435-0.95,3.899v34.9h-10.9V18.765z"/>
	<path fill="#0D3B66" d="M352.388,92.765c-2.867,0-5.067-0.815-6.601-2.45c-1.534-1.633-2.467-3.716-2.8-6.25h-0.5
		c-1,3.268-2.834,5.734-5.5,7.4c-2.667,1.665-5.9,2.5-9.7,2.5c-5.399,0-9.55-1.4-12.45-4.2c-2.899-2.8-4.35-6.565-4.35-11.3
		c0-5.2,1.883-9.101,5.65-11.7c3.766-2.6,9.282-3.9,16.55-3.9h9.399v-4.399c0-3.2-0.867-5.666-2.6-7.4
		c-1.734-1.732-4.435-2.6-8.1-2.6c-3.067,0-5.567,0.667-7.5,2c-1.935,1.334-3.567,3.034-4.9,5.1l-6.5-5.899
		c1.732-2.934,4.166-5.351,7.3-7.25c3.133-1.9,7.233-2.851,12.3-2.851c6.733,0,11.9,1.567,15.5,4.7c3.601,3.135,5.4,7.635,5.4,13.5
		v26.1h5.5v8.9H352.388z M330.388,85.665c3.399,0,6.199-0.75,8.399-2.25s3.3-3.516,3.3-6.051v-7.5h-9.199
		c-7.535,0-11.301,2.335-11.301,7v1.801c0,2.334,0.783,4.084,2.351,5.25C325.503,85.082,327.654,85.665,330.388,85.665z"/>
	<path fill="#0D3B66" d="M379.588,92.765l-17.699-52h10.8l7.899,23.7l5.301,18.2h0.6l5.3-18.2l8.101-23.7h10.399l-17.899,52H379.588
		z"/>
	<path fill="#0D3B66" d="M439.088,93.965c-3.734,0-7.067-0.635-10-1.9c-2.935-1.266-5.435-3.083-7.5-5.45
		c-2.067-2.365-3.65-5.232-4.75-8.6c-1.101-3.365-1.65-7.115-1.65-11.25c0-4.133,0.55-7.883,1.65-11.25
		c1.1-3.365,2.683-6.232,4.75-8.6c2.065-2.366,4.565-4.184,7.5-5.45c2.933-1.266,6.266-1.9,10-1.9c3.8,0,7.149,0.667,10.05,2
		c2.9,1.335,5.315,3.185,7.25,5.55c1.933,2.367,3.383,5.117,4.35,8.25c0.966,3.135,1.45,6.5,1.45,10.101v4.1h-35.7v1.689
		c0,3.975,1.184,7.235,3.551,9.786c2.365,2.55,5.75,3.824,10.149,3.824c3.2,0,5.9-0.695,8.101-2.086
		c2.199-1.391,4.065-3.279,5.6-5.664l6.4,6.319c-1.935,3.209-4.734,5.767-8.4,7.673C448.221,93.012,443.954,93.965,439.088,93.965z
		 M439.088,48.064c-1.867,0-3.585,0.335-5.15,1c-1.567,0.667-2.899,1.601-4,2.8c-1.1,1.2-1.95,2.635-2.55,4.301
		c-0.6,1.667-0.9,3.5-0.9,5.5v0.699h24.2v-1c0-4-1.034-7.215-3.1-9.649C445.521,49.282,442.688,48.064,439.088,48.064z"/>
	<path fill="#0D3B66" d="M474.288,92.765v-52h10.9v8.6h0.5c1.133-2.8,2.85-5.133,5.149-7c2.301-1.865,5.45-2.8,9.45-2.8
		c5.333,0,9.483,1.75,12.45,5.25c2.966,3.5,4.45,8.484,4.45,14.95v33h-10.9v-31.6c0-8.133-3.267-12.2-9.8-12.2
		c-1.4,0-2.784,0.185-4.15,0.55c-1.367,0.367-2.584,0.917-3.649,1.65c-1.067,0.734-1.917,1.667-2.55,2.8
		c-0.635,1.134-0.95,2.467-0.95,4v34.8H474.288z"/>
</g>
<g>
	<path fill="#72A572" d="M55.33,67.48c4.356,2.819,8.896,5.296,13.792,7.209c8.042-5.61,17-9.209,27.683-9.064
		c-10.55-0.143-19.494-2.581-28.264-7.124c-4.696,2.432-9.053,5.425-12.981,8.904"/>
	<path fill="#72A572" d="M44.039,58.5c3.491-3.306,7.41-6.42,11.458-9.041c-3.601-3.188-6.841-6.771-9.647-10.695
		c-3.933,2.688-7.765,5.78-11.228,9.028c2.812,3.844,5.924,7.396,9.37,10.661"/>
	<path fill="#72A572" d="M25.076,58.5C12.822,74.22,5.5,93.996,5.5,115.497h14.199c0-17.334,5.619-33.345,15.113-46.322
		C31.298,65.878,28.045,62.307,25.076,58.5"/>
	<path fill="#72A572" d="M72.251,26.495c-4.896,1.4-9.624,3.18-14.149,5.332c3.143,4.118,6.904,7.73,11.155,10.695
		c8.787-3.434,17.338-5.34,27.338-5.34C86.665,37.183,78.696,33.089,72.251,26.495"/>
	<path fill="#72A572" d="M34.003,115.44h14.199c0-11.388,3.812-21.877,10.211-30.271c-4.328-2.059-8.475-4.44-12.398-7.127
		C38.466,88.571,34.003,101.48,34.003,115.44"/>
	<path fill="#72A572" d="M62.303,115.499h14.199c0-11.804,8.539-21.375,20.302-21.375c-8.79,0-16.078-1.832-24.14-3.873
		C66.384,96.68,62.303,105.786,62.303,115.499"/>
	<g>
		<path fill="#A9D66E" d="M72.539,27.038c6.442,6.593,14.312,10.297,24.625,10.086V23.397h-0.264c0,0-0.001,0-0.002,0l0,0
			c-0.004,0-0.008,0-0.013,0c-11.761,0-20.288-10-20.288-21H62.397c0,9,3.693,18.062,9.975,24.49
			C72.373,26.888,72.538,27.038,72.539,27.038z"/>
		<path fill="#A9D66E" d="M44.085,58.531c-3.445-3.266-6.569-6.771-9.38-10.614c-0.879,0.824-0.82,0.038-1.667,0.896
			c0.846-0.857,0.891,0.282,1.77-0.542C25.314,35.294,19.701,19.397,19.701,2.397H5.502c0,21,7.322,40.83,19.574,56.549
			c0,0-0.001-0.223-0.001-0.223c2.968,3.807,6.01,7.404,9.526,10.701 M34.442,69.191c3.463,3.245,6.722,6.217,10.722,8.902
			c0,0.001,0,0.004,0,0.004c4,2.687,8.447,4.791,12.775,6.85c4.521,2.152,9.121,3.909,13.975,5.095l0.521,0.146
			c8.053,2,15.729,3.935,24.729,3.935V80.397c0,0-0.372,0-0.379,0c-9.99,0-18.731-2.17-27.513-5.602
			c-4.898-1.914-9.108-4.564-14.108-7.384c0-0.001,0-0.004,0-0.004c-4-2.622-7.642-5.604-11.133-8.905"/>
		<path fill="#A9D66E" d="M68.46,58.476c8.77,4.543,18.703,7.149,28.703,7.149V51.397c0,0-0.397,0-0.416,0
			c-10.513,0-19.265-3.164-27.292-8.762l-0.001,0.022c-4.207-2.947-8.032-6.383-11.142-10.462
			c-6.399-8.395-10.211-18.799-10.211-29.799H33.903c0,14,4.26,26.42,11.809,36.949c2.811,3.918,6.451,7.157,9.451,10.344v-0.05
			c4,3.479,8.584,6.403,13.281,8.835"/>
	</g>
</g>
</svg>
